# xmcd CD database file
#
# Track frame offsets:
#	150
#	15549
#	28409
#	46160
#	61978
#	84896
#	107789
#	124482
#	154139
#	169470
#	199074
#	214453
#	230501
#	248634
#	267821
#	281559
#	293937
#
# Disc length: 4158 seconds
#
# Revision: 0
# Processed by: cddbd v1.5.2PL0 Copyright (c) Steve Scherf et al.
# Submitted via: CDex 1.70beta2
#
DISCID=fb103c11
DTITLE=Little Milton - The Very Best Of
DYEAR=2007
DGENRE=Blues
TTITLE0=If That Ain't A Reason (For Your Woman To Leave You)
TTITLE1=I'm Living Off The Love You Give
TTITLE2=That's What Love Will Make You Do
TTITLE3=Before The Honeymoon
TTITLE4=Walking The Back Streets And Crying
TTITLE5=Eight Men And Four Women
TTITLE6=I'm Gonna Cry A River
TTITLE7=Let Me Down Easy (Live At Montreux)
TTITLE8=Rainy Day
TTITLE9=Little Bluebird
TTITLE10=What It Is
TTITLE11=Tin Pan Alley
TTITLE12=Behind Closed Doors
TTITLE13=Woman Across The River
TTITLE14=Let Me Back In
TTITLE15=If You Talk In Your Sleep
TTITLE16=Packed Up And Took My Mind
EXTD=YEAR: 2007
EXTT0=
EXTT1=
EXTT2=
EXTT3=
EXTT4=
EXTT5=
EXTT6=
EXTT7=
EXTT8=
EXTT9=
EXTT10=
EXTT11=
EXTT12=
EXTT13=
EXTT14=
EXTT15=
EXTT16=
PLAYORDER=
